
        <svg xmlns="http://www.w3.org/2000/svg" xmlns:xlink="http://www.w3.org/1999/xlink" version="1.1" width="3147.783251231527" height="892.8572054958502" viewBox="0 0 3147.783251231527 892.8572054958502">
			
			<g transform="scale(7.389162561576355) translate(10, 10)">
				<defs id="SvgjsDefs1167"/><g id="SvgjsG1168" featureKey="symbolFeature-0" transform="matrix(1.388888888888889,0,0,1.388888888888889,-12.500000000000002,-12.083333068423803)" fill="#fff"><polygon xmlns="http://www.w3.org/2000/svg" points="71,48.7 71,18.2 54.8,9 38.7,9 63,22.8 63,36.7 63,53.3 "/><polygon xmlns="http://www.w3.org/2000/svg" points="29,66 54.8,81 54.7,81 55.1,81.3 71.7,71.7 79.7,57.8 55.3,72 29,56.8 "/><polygon xmlns="http://www.w3.org/2000/svg" points="61.2,57 61.3,57 46.9,65.2 54.8,69.8 81,54.5 81,35.2 73,21.3 73,49.8 "/><polygon xmlns="http://www.w3.org/2000/svg" points="61,23.9 34.8,8.7 18.2,18.3 10.2,32.3 35,18 47,25 46.8,25 61,33.2 "/><polygon xmlns="http://www.w3.org/2000/svg" points="35.2,20.3 9,35.6 9,54.8 17,68.7 17,40.2 28.8,33.2 28.8,33.2 43.2,24.9 "/><polygon xmlns="http://www.w3.org/2000/svg" points="19,41.3 19,71.8 35.2,81 51.4,81 27,67.2 27,53.3 27,36.7 "/></g><g id="SvgjsG1169" featureKey="textGroupContainer" transform="matrix(1,0,0,1,405,8)" fill="#fff"><rect xmlns="http://www.w3.org/2000/svg" y="0" height="1" width="1" opacity="0"/><rect xmlns="http://www.w3.org/2000/svg" y="0" x="-285" width="3" height="86"/></g><g id="SvgjsG1170" featureKey="nameFeature-0" transform="matrix(1.4726241913217817,0,0,1.4726241913217817,136.84884806749983,13.231774522936366)" fill="#fff"><path d="M20.02 11.777000000000001 l0 5.1563 l-6.6992 0 l0 23.066 l-5.8008 0 l0 -23.066 l-6.7383 0 l0 -5.1563 l19.238 0 z M33.82778125 40.39063 c-6.0547 0 -10.781 -2.9102 -11.641 -8.2031 l6.0547 -1.3867 c0.39063 3.1641 2.7148 4.8047 5.8203 4.8047 c2.3828 0 4.2773 -1.0547 4.2578 -3.4375 c-0.019531 -2.6563 -3.1445 -3.4961 -6.582 -4.5508 c-4.1406 -1.2891 -8.5742 -2.8125 -8.5742 -8.0078 c0 -5.2539 4.2969 -8.2227 9.9609 -8.2227 c4.9609 0 9.9609 2.0117 11.094 7.4219 l-5.6641 1.4063 c-0.52734 -2.8125 -2.4219 -4.043 -5.0781 -4.043 c-2.3633 0 -4.375 0.97656 -4.375 3.3008 c0 2.168 2.7734 2.8906 5.9766 3.8477 c4.2578 1.2891 9.2969 2.9297 9.2969 8.5547 c0 5.9961 -5.0195 8.5156 -10.547 8.5156 z M66.4848125 40 l-8.7695 -11.992 l-2.0703 0 l0 11.992 l-5.8594 0 l0 -28.223 l5.8594 0 l0 11.094 l1.9922 0 l8.8477 -11.094 l7.1484 0 l-10.938 13.496 l11.27 14.727 l-7.4805 0 z M110.50771875000001 40 l-5.8398 0 l-1.8555 -21.27 l-7.1484 21.27 l-3.7891 0 l-7.1484 -21.27 l-1.875 21.27 l-5.8594 0 l2.3633 -28.223 l8.3594 0 l6.0156 17.715 l6.0938 -17.715 l8.3594 0 z M128.84728125 40.39063 c-8.1445 0 -14.141 -5.625 -14.141 -14.434 c0 -8.9258 6.1328 -14.57 14.434 -14.57 c5.4492 0 9.9609 2.4023 12.422 6.6406 l-5.1367 2.7344 c-1.4844 -2.8906 -4.1406 -4.2773 -7.2852 -4.2773 c-4.8828 0 -8.5547 3.3594 -8.5547 9.3359 c0 5.7617 3.4375 9.4727 8.7695 9.4727 c3.6133 0 6.9336 -1.7969 7.7344 -5.918 l-7.7148 0 l0 -4.707 l13.262 0 l0 15.332 l-4.6094 0 l0 -3.9063 c-1.8164 2.6758 -4.8633 4.2969 -9.1797 4.2969 z M163.61359375 40 l-7.3438 -12.422 l-1.6992 0 l0 12.422 l-5.8594 0 l0 -28.223 l10.234 0 c6.3867 0 9.082 3.7695 9.082 8.4375 c0 3.7891 -2.1484 6.25 -5.9766 7.0703 l8.4961 12.715 l-6.9336 0 z M154.57029375 16.641 l0 6.7383 l3.457 0 c3.125 0 4.3945 -1.3281 4.3945 -3.3594 c0 -2.0117 -1.2695 -3.3789 -4.3945 -3.3789 l-3.457 0 z"/></g>
			</g>
		</svg>
	