
        <svg xmlns="http://www.w3.org/2000/svg" xmlns:xlink="http://www.w3.org/1999/xlink" version="1.1" width="3162.1621621621625" height="979.729798463014" viewBox="0 0 3162.1621621621625 979.729798463014">
			
			<g transform="scale(8.108108108108109) translate(10, 10)">
				<defs id="SvgjsDefs1137"/><g id="SvgjsG1138" featureKey="symbolFeature-0" transform="matrix(1.388888888888889,0,0,1.388888888888889,-12.500000000000002,-12.083333068423803)" fill="#fff"><polygon xmlns="http://www.w3.org/2000/svg" points="71,48.7 71,18.2 54.8,9 38.7,9 63,22.8 63,36.7 63,53.3 "/><polygon xmlns="http://www.w3.org/2000/svg" points="29,66 54.8,81 54.7,81 55.1,81.3 71.7,71.7 79.7,57.8 55.3,72 29,56.8 "/><polygon xmlns="http://www.w3.org/2000/svg" points="61.2,57 61.3,57 46.9,65.2 54.8,69.8 81,54.5 81,35.2 73,21.3 73,49.8 "/><polygon xmlns="http://www.w3.org/2000/svg" points="61,23.9 34.8,8.7 18.2,18.3 10.2,32.3 35,18 47,25 46.8,25 61,33.2 "/><polygon xmlns="http://www.w3.org/2000/svg" points="35.2,20.3 9,35.6 9,54.8 17,68.7 17,40.2 28.8,33.2 28.8,33.2 43.2,24.9 "/><polygon xmlns="http://www.w3.org/2000/svg" points="19,41.3 19,71.8 35.2,81 51.4,81 27,67.2 27,53.3 27,36.7 "/></g><g id="SvgjsG1139" featureKey="nameFeature-0" transform="matrix(1.8595659938224818,0,0,1.8595659938224818,119.55363365029037,-4.273434189024247)" fill="#fff"><path d="M9.36 13.120000000000001 l0.000039062 6.2 l4.16 0 l0 3.8 l-4.16 0 l0 10.24 c0 0.96 0.16 1.6 0.48 1.92 s0.96 0.48 1.92 0.48 c0.69332 0 1.28 -0.05332 1.76 -0.16 l0 4.44 c-0.8 0.13332 -1.92 0.2 -3.36 0.2 c-2.1867 0 -3.8134 -0.37332 -4.88 -1.12 s-1.6 -2.04 -1.6 -3.88 l0 -12.12 l-3.44 0 l0 -3.8 l3.44 0 l0 -6.2 l5.68 0 z M24.72 18.76 c2.7733 0 4.94 0.56004 6.5 1.68 s2.4333 2.76 2.62 4.92 l-5.4 0 c-0.08 -0.98668 -0.44 -1.7 -1.08 -2.14 s-1.5733 -0.66 -2.8 -0.66 c-1.0667 0 -1.86 0.16 -2.38 0.48 s-0.78 0.8 -0.78 1.44 c0 0.48 0.17332 0.88 0.52 1.2 s0.87336 0.6 1.58 0.84 s1.4867 0.44 2.34 0.6 c2.5867 0.50668 4.4132 1.0267 5.48 1.56 s1.8467 1.1733 2.34 1.92 s0.74 1.6667 0.74 2.76 c0 2.32 -0.84668 4.1 -2.54 5.34 s-3.9933 1.86 -6.9 1.86 c-3.04 0 -5.4068 -0.65332 -7.1 -1.96 s-2.5666 -3.08 -2.62 -5.32 l5.4 0 c0 1.0667 0.41332 1.9134 1.24 2.54 s1.8667 0.94 3.12 0.94 c1.0667 0 1.9534 -0.23332 2.66 -0.7 s1.06 -1.1134 1.06 -1.94 c0 -0.53332 -0.22 -0.97332 -0.66 -1.32 s-1.06 -0.65336 -1.86 -0.92004 s-2.04 -0.57336 -3.72 -0.92004 c-1.3333 -0.26668 -2.52 -0.62668 -3.56 -1.08 s-1.8333 -1.0466 -2.38 -1.78 s-0.82 -1.6333 -0.82 -2.7 c0 -1.36 0.32668 -2.5467 0.98 -3.56 s1.6533 -1.78 3 -2.3 s3.02 -0.78 5.02 -0.78 z M43.92 11.440000000000001 l0 15.32 l7.16 -7.44 l6.72 0 l-7.8 7.6 l8.68 13.08 l-6.88 0 l-5.68 -9.24 l-2.2 2.12 l0 7.12 l-5.68 0 l0 -28.56 l5.68 0 z M72.60000000000001 18.76 c3.0133 0 5.0268 1.1466 6.04 3.44 c1.5733 -2.2933 3.6666 -3.44 6.28 -3.44 c2.5867 0 4.4868 0.65332 5.7 1.96 s1.82 3.1067 1.82 5.4 l0 13.88 l-5.68 0 l0 -11.96 c0 -1.8133 -0.27332 -3.0666 -0.82 -3.76 s-1.4334 -1.04 -2.66 -1.04 c-2.5333 0 -3.8 1.7333 -3.8 5.2 l0 11.56 l-5.68 0 l0 -12.2 c0 -1.76 -0.28 -2.96 -0.84 -3.6 s-1.4267 -0.96 -2.6 -0.96 c-1.0933 0 -2.0066 0.43332 -2.74 1.3 s-1.1 2.0067 -1.1 3.42 l0 12.04 l-5.68 0 l0 -20.68 l5.36 0 l0 2.8 l0.08 0 c1.5733 -2.24 3.68 -3.36 6.32 -3.36 z M105.16000000000001 18.76 c2.8533 0 4.9068 1.1066 6.16 3.32 l0.08 0 l0 -2.76 l5.4 0 l0 19.4 c0 2.9867 -0.92668 5.2532 -2.78 6.8 s-4.4868 2.32 -7.9 2.32 c-2.6133 0 -4.7668 -0.62668 -6.46 -1.88 s-2.5933 -2.84 -2.7 -4.76 l5.64 0 c0.45332 1.8933 1.8666 2.84 4.24 2.84 c1.4667 0 2.5934 -0.43332 3.38 -1.3 s1.18 -2.1 1.18 -3.7 l0 -2.84 l-0.08 0 c-0.56 1.0133 -1.38 1.8 -2.46 2.36 s-2.3267 0.84 -3.74 0.84 c-2.7733 0 -4.94 -0.90668 -6.5 -2.72 s-2.34 -4.3732 -2.34 -7.68 c0 -2.9333 0.82 -5.3732 2.46 -7.32 s3.78 -2.92 6.42 -2.92 z M101.96000000000001 28.92 c0 1.9467 0.40672 3.4666 1.22 4.56 s1.94 1.64 3.38 1.64 c1.4667 0 2.64 -0.52668 3.52 -1.58 s1.32 -2.4466 1.32 -4.18 c0 -2.08 -0.42 -3.6533 -1.26 -4.72 s-2.0467 -1.6 -3.62 -1.6 c-1.4667 0 -2.5934 0.55332 -3.38 1.66 s-1.18 2.5134 -1.18 4.22 z M133.44 18.76 c0.48 0 0.89336 0.06668 1.24 0.2 l0 5.28 c-0.61332 -0.13332 -1.2933 -0.2 -2.04 -0.2 c-3.7333 0 -5.6 2.2133 -5.6 6.64 l0 9.32 l-5.68 0 l0 -20.68 l5.4 0 l0 3.84 l0.08 0 c0.56 -1.3333 1.4467 -2.4 2.66 -3.2 s2.5266 -1.2 3.94 -1.2 z"/></g>
			</g>
		</svg>
	